<?xml version="1.0" standalone="no"?>
<!DOCTYPE svg PUBLIC "-//W3C//DTD SVG 20010904//EN"
 "http://www.w3.org/TR/2001/REC-SVG-20010904/DTD/svg10.dtd">
<svg version="1.0" xmlns="http://www.w3.org/2000/svg"
 width="600.000000pt" height="600.000000pt" viewBox="0 0 600.000000 600.000000"
 preserveAspectRatio="xMidYMid meet">

<g transform="translate(0.000000,600.000000) scale(0.100000,-0.100000)"
fill="#000000" stroke="none">
<path d="M1630 3006 l0 -1574 455 -7 c630 -10 924 8 1164 71 415 109 794 420
970 795 130 276 177 592 136 901 -100 756 -641 1306 -1354 1378 -59 6 -372 10
-737 10 l-634 0 0 -1574z m1555 990 c124 -36 205 -83 290 -170 128 -129 185
-270 185 -457 0 -110 -17 -185 -65 -287 -61 -129 -196 -247 -329 -288 -23 -6
-40 -17 -39 -23 2 -6 139 -180 305 -386 167 -207 305 -380 306 -386 2 -5 -120
-9 -317 -9 l-320 0 -39 53 c-21 28 -135 193 -253 366 l-214 314 -3 -367 -2
-366 -260 0 -260 0 0 360 0 360 -130 0 -130 0 0 200 0 200 372 0 c204 0 369 2
367 4 -2 2 -111 19 -241 37 l-238 33 0 419 0 418 478 -4 c417 -3 484 -6 537
-21z"/>
<path d="M2690 3364 l0 -257 108 6 c123 6 183 24 230 70 56 54 77 102 76 182
-1 102 -44 175 -130 218 -39 20 -140 37 -221 37 l-63 0 0 -256z"/>
</g>
</svg>
